<svg xmlns="http://www.w3.org/2000/svg" viewBox="0 0 240 240" role="img" aria-labelledby="title desc">
  <title id="title">Marca em forma de árvore</title>
  <desc id="desc">Árvore estilizada em azul esverdeado, inspirada na identidade visual da clínica.</desc>
  <defs>
    <linearGradient id="treeGradient" x1="0%" y1="0%" x2="100%" y2="100%">
      <stop offset="0%" stop-color="#0f7a7c" />
      <stop offset="100%" stop-color="#0b6369" />
    </linearGradient>
  </defs>
  <g fill="url(#treeGradient)">
    <path d="M117 216c1-13 4-26 8-36 5-12 14-22 20-31 9-12 13-24 13-39 0-20-9-36-16-51-7-14-12-28-12-47 0-7 1-13 3-19-9 12-14 27-14 42 0 18-4 34-11 48-9 18-17 34-17 57 0 18 7 33 16 47 7 10 16 20 22 31 3 5 6 10 9 16l-21-18-22 18c6-12 14-22 22-32 8-10 14-22 14-38 0-19-7-33-15-48-7-14-12-28-12-48 0-16 5-31 15-43-1 4-1 8-1 12 0 18 5 33 12 47 8 16 17 32 17 54 0 18-6 33-15 47-5 8-13 17-18 28-4 9-7 19-9 31Z"/>
    <path d="M121 137c-8 0-14-5-18-13-4-8-6-18-6-27 0-11 4-24 12-34-2 8-2 17-2 25 0 14 2 25 7 33 3 5 6 8 11 8s8-3 11-8c5-8 7-19 7-33 0-8 0-17-2-25 8 10 12 23 12 34 0 9-2 19-6 27-4 8-10 13-18 13Z" opacity=".55"/>
  </g>
  <g fill="#0f7a7c">
    <ellipse cx="121" cy="34" rx="13" ry="25" transform="rotate(-2 121 34)"/>
    <ellipse cx="86" cy="43" rx="12" ry="24" transform="rotate(-24 86 43)"/>
    <ellipse cx="156" cy="44" rx="12" ry="24" transform="rotate(22 156 44)"/>
    <ellipse cx="61" cy="67" rx="11" ry="22" transform="rotate(-40 61 67)"/>
    <ellipse cx="180" cy="68" rx="11" ry="22" transform="rotate(40 180 68)"/>
    <ellipse cx="47" cy="100" rx="11" ry="24" transform="rotate(-60 47 100)"/>
    <ellipse cx="194" cy="101" rx="11" ry="24" transform="rotate(57 194 101)"/>
    <ellipse cx="40" cy="136" rx="12" ry="26" transform="rotate(-74 40 136)"/>
    <ellipse cx="201" cy="138" rx="12" ry="26" transform="rotate(73 201 138)"/>
    <ellipse cx="54" cy="170" rx="12" ry="24" transform="rotate(-62 54 170)"/>
    <ellipse cx="187" cy="171" rx="12" ry="24" transform="rotate(60 187 171)"/>
    <ellipse cx="81" cy="183" rx="11" ry="22" transform="rotate(-35 81 183)"/>
    <ellipse cx="160" cy="183" rx="11" ry="22" transform="rotate(35 160 183)"/>
    <ellipse cx="100" cy="195" rx="9" ry="19" transform="rotate(-15 100 195)"/>
    <ellipse cx="141" cy="196" rx="9" ry="19" transform="rotate(15 141 196)"/>
    <ellipse cx="96" cy="71" rx="10" ry="22" transform="rotate(-14 96 71)"/>
    <ellipse cx="145" cy="72" rx="10" ry="22" transform="rotate(16 145 72)"/>
    <ellipse cx="78" cy="103" rx="10" ry="23" transform="rotate(-28 78 103)"/>
    <ellipse cx="163" cy="104" rx="10" ry="23" transform="rotate(28 163 104)"/>
    <ellipse cx="73" cy="138" rx="10" ry="24" transform="rotate(-36 73 138)"/>
    <ellipse cx="169" cy="139" rx="10" ry="24" transform="rotate(36 169 139)"/>
  </g>
  <g fill="none" stroke="#0b6369" stroke-linecap="round" stroke-linejoin="round" opacity=".65">
    <path d="M120 68c0 22-7 39-19 55" stroke-width="6"/>
    <path d="M120 68c0 21 7 39 19 55" stroke-width="6"/>
    <path d="M120 92c-17 5-31 15-42 29" stroke-width="5"/>
    <path d="M120 92c17 5 31 15 42 29" stroke-width="5"/>
    <path d="M117 141c-18 6-33 18-43 34" stroke-width="5"/>
    <path d="M123 141c18 6 33 18 43 34" stroke-width="5"/>
  </g>
</svg>
